<svg width="37" height="37" viewBox="0 0 37 37" fill="none" xmlns="http://www.w3.org/2000/svg">
<rect x="8.52832" y="11.9676" width="15.7427" height="15.7427" stroke="#357895" stroke-opacity="0.25"/>
<path d="M12.0593 16.0444L12.1004 15.9816C12.641 15.2173 13.3699 14.1967 14.1325 12.7965C14.4662 12.1863 14.7971 11.498 15.157 10.7492C15.6864 9.6418 16.2773 8.4098 17.0234 7.12812C17.3307 6.59606 17.6236 6.10935 17.917 5.71346C18.2139 5.3138 18.5185 4.99743 18.8467 4.81868C19.3603 4.53868 19.9173 4.50739 20.4594 4.66399C20.9748 4.80783 21.4713 5.11305 21.9076 5.5214C22.3391 5.92469 22.7102 6.43111 22.9699 6.97229C23.2944 7.64877 23.448 8.38117 23.3307 9.05041C23.2655 9.44239 23.0946 9.79221 22.83 10.0974C22.5691 10.3989 22.2121 10.6683 21.7749 10.8995C21.2266 11.2865 20.3912 11.8198 19.2711 12.4865C18.151 13.1533 16.7546 13.9549 15.0663 14.8976C14.6171 15.1616 14.1377 15.477 13.6196 15.8428C13.2904 16.0733 12.9479 16.3276 12.5873 16.6008L12.6068 16.6211C12.641 16.6566 12.6485 16.7096 12.6195 16.7397L12.3548 17.0147L12.545 17.2124C12.6767 17.3493 12.6969 17.5512 12.5954 17.6567L5.8136 24.721C5.76284 24.7737 5.69494 24.7936 5.61966 24.7907C5.16477 25.1618 4.55543 25.1764 4.1994 24.8063C3.83849 24.4311 3.86133 23.7993 4.21868 23.3267C4.21229 23.2523 4.2363 23.1868 4.28344 23.1379L11.0652 16.0735C11.1704 15.9643 11.3647 15.9855 11.4928 16.1261L11.6501 16.2972L11.9148 16.0223C11.9438 15.9921 11.9948 16 12.029 16.0355L12.0387 16.0456L12.0593 16.0444ZM5.37381 24.6406L4.39839 23.6266C4.18984 23.975 4.18912 24.3812 4.41834 24.6194C4.64757 24.8577 5.04208 24.8534 5.37381 24.6406ZM13.8563 15.2524C14.1492 15.0293 14.4287 14.8301 14.6938 14.646C16.2301 13.6281 17.5059 12.7691 18.5166 12.064C19.5395 11.3564 20.3007 10.7988 20.8101 10.4015L20.8137 10.3977C21.2072 10.1512 21.5278 9.88911 21.7743 9.60273C22.022 9.32519 22.1955 9.02331 22.2961 8.70593C22.4554 8.18575 22.4337 7.6508 22.2751 7.17697C22.2056 7.39107 22.101 7.62139 21.9563 7.86286C21.7912 8.13577 21.5739 8.4223 21.3068 8.70983C21.0397 8.99737 20.7241 9.29476 20.3673 9.59447C19.8775 10.0424 19.1603 10.6758 18.2205 11.4999C17.2722 12.3227 16.0929 13.3348 14.6861 14.5324C14.4309 14.757 14.1563 14.9915 13.8697 15.2587L13.8563 15.2524ZM22.1427 6.85843C22.019 6.60174 21.8493 6.37258 21.6482 6.18615C21.5909 6.13414 21.5385 6.08721 21.4825 6.04404C21.1939 6.12081 20.8269 6.31956 20.4036 6.67822C20.1362 6.90521 19.8461 7.2065 19.5272 7.56821C19.2118 7.92615 18.864 8.34826 18.492 8.80557C17.5983 9.89604 16.8147 10.9126 16.112 11.8249C15.6375 12.4394 15.2016 13.0036 14.785 13.5276C13.9819 14.5239 13.2789 15.3454 12.7171 15.9897C12.9045 15.8153 13.0883 15.6446 13.2649 15.4815C13.7293 15.06 14.1465 14.6874 14.5202 14.3601C15.9307 13.1586 17.11 12.1465 18.0547 11.3275C19.003 10.5047 19.7238 9.86752 20.2014 9.42209C20.5583 9.12238 20.8703 8.82876 21.1337 8.54499C21.3972 8.26121 21.6121 7.98729 21.7736 7.71815C21.9617 7.40121 22.0794 7.11671 22.1354 6.86596L22.1427 6.85843ZM21.2488 5.89151C21.1271 5.82531 20.9946 5.77041 20.8645 5.73318C20.4015 5.60599 19.8737 5.66769 19.3446 6.01448C19.0553 6.20351 18.7725 6.49728 18.479 6.8629C18.1855 7.22851 17.8827 7.67481 17.5606 8.16138C16.7789 9.33819 16.1329 10.445 15.5544 11.4412C15.1591 12.1154 14.7987 12.743 14.4405 13.2975C14.0389 13.9275 13.6588 14.4743 13.3112 14.957C13.7111 14.491 14.152 13.9621 14.629 13.3653C15.0432 12.854 15.4778 12.2809 15.9559 11.6627C16.655 10.7542 17.435 9.74133 18.336 8.64333C18.7043 8.18978 19.0521 7.76767 19.3711 7.40597C19.6937 7.0405 19.9874 6.73543 20.2584 6.50468C20.6334 6.18614 20.9712 5.98726 21.2524 5.88774L21.2488 5.89151ZM21.461 5.83328C21.5544 5.81734 21.6406 5.80894 21.7207 5.81691C21.8847 5.82908 22.0257 5.88528 22.1403 5.98929C22.0402 5.87022 21.9329 5.75868 21.8232 5.65974C21.4211 5.28688 20.9646 5.00078 20.4931 4.87229C19.9948 4.73105 19.4741 4.75495 18.9921 5.0225C18.6796 5.19502 18.3859 5.50009 18.0962 5.89221C17.8028 6.2881 17.5135 6.77105 17.2098 7.29934C16.4674 8.57726 15.8765 9.80926 15.3507 10.9129C14.9908 11.6617 14.6563 12.3538 14.3226 12.9639C14.1515 13.2835 13.978 13.5854 13.8092 13.862C13.96 13.6345 14.1144 13.4031 14.2748 13.1554C14.6294 12.6047 14.9897 11.977 15.3851 11.3029C15.9672 10.3029 16.6169 9.19232 17.3986 8.01551C17.7207 7.52894 18.0235 7.08264 18.3242 6.70949C18.6249 6.33634 18.915 6.03504 19.2116 5.83848C19.7745 5.46663 20.3484 5.40768 20.8553 5.55022C21.0765 5.6144 21.2857 5.71131 21.4793 5.84472L21.461 5.83328ZM22.2513 6.12734C22.3051 6.21339 22.3456 6.32333 22.3655 6.43444C22.3891 6.57205 22.3825 6.73096 22.3493 6.90739C22.3603 6.92637 22.3677 6.94911 22.3787 6.96809C22.6202 7.5281 22.6849 8.19068 22.4921 8.82674C22.3903 9.16556 22.2059 9.47874 21.9473 9.76758C21.6888 10.0564 21.3609 10.326 20.9638 10.5763C20.4508 10.9774 19.6895 11.535 18.6703 12.2388C17.7504 12.8801 16.6307 13.6377 15.3112 14.5116C16.8335 13.6601 18.1136 12.9185 19.1501 12.3081C20.2666 11.6451 21.0984 11.1156 21.6454 10.7197L21.649 10.716C22.0791 10.4923 22.4252 10.2342 22.674 9.93518C22.9241 9.64504 23.0853 9.31535 23.1493 8.9448C23.2559 8.31714 23.1122 7.62516 22.8109 6.99547C22.6627 6.68316 22.4709 6.38577 22.2537 6.11474L22.2513 6.12734ZM22.1853 6.60131C22.1911 6.52439 22.1847 6.44994 22.1759 6.38808C22.1548 6.26814 22.1131 6.17963 22.0546 6.11879C21.9925 6.06172 21.9037 6.02217 21.7859 6.01276C21.7567 6.01261 21.7276 6.01247 21.6985 6.01232C21.718 6.0326 21.7362 6.04404 21.7557 6.06432C21.9191 6.21903 22.0655 6.40141 22.1889 6.59754L22.1853 6.60131Z" fill="#357895"/>
<path d="M30.3474 16.8302L28.7628 16.1014L29.376 14.8437C29.4019 14.7909 29.4131 14.7322 29.4083 14.674C29.4035 14.6159 29.3829 14.5605 29.3488 14.5142C29.3148 14.4678 29.2685 14.4322 29.2152 14.4112C29.1619 14.3903 29.1036 14.3849 29.0467 14.3956L27.3695 14.711L27.7077 13.0442C27.7192 12.9864 27.7148 12.9269 27.6949 12.8722C27.675 12.8175 27.6404 12.7699 27.595 12.7345C27.5495 12.6992 27.495 12.6776 27.4376 12.6722C27.3801 12.6667 27.3219 12.6776 27.2695 12.7036L26.0293 13.3263L25.3113 11.7175C25.2851 11.6581 25.2412 11.6088 25.1856 11.5765C25.13 11.5442 25.0655 11.5304 25.001 11.5371C24.9377 11.5426 24.877 11.5675 24.8272 11.6086C24.7774 11.6497 24.7408 11.7049 24.7222 11.7669L23.1808 16.8254C22.9695 16.8302 22.7667 16.919 22.616 17.0728L22.5529 17.1369C22.4127 17.2804 22.3275 17.4695 22.3129 17.6691L20.2223 17.8037C19.7237 17.8363 19.2373 17.9889 18.8033 18.2488C18.3693 18.5087 18.0003 18.8684 17.7266 19.2982L10.4398 30.7832C10.4011 30.8447 10.3839 30.9172 10.391 30.9889C10.3982 31.0606 10.4293 31.1272 10.4793 31.1775L11.1819 31.8908C11.2315 31.9415 11.297 31.9731 11.3677 31.9804C11.4383 31.9877 11.5098 31.9702 11.5703 31.9309L22.8817 24.5252C23.305 24.2474 23.6592 23.8726 23.9152 23.432C24.1711 22.9913 24.3213 22.4975 24.3535 21.9912L24.4838 19.9115C24.6925 19.9036 24.8919 19.8145 25.0408 19.6627L25.1055 19.5985C25.1869 19.5184 25.2516 19.4224 25.2954 19.3167C25.3393 19.2109 25.3614 19.0976 25.3604 18.9837L30.305 17.4299C30.3676 17.4108 30.4232 17.3725 30.4641 17.3203C30.5049 17.2681 30.529 17.2047 30.533 17.1388C30.5376 17.0735 30.5223 17.0088 30.489 16.9535C30.4558 16.8983 30.4064 16.8552 30.3474 16.8302ZM11.4542 31.26L11.1006 30.901L12.5652 28.5938C12.8667 28.6212 13.1483 28.7502 13.3653 28.9604C13.5717 29.1813 13.6987 29.4669 13.7266 29.7728L11.4542 31.26ZM23.7339 21.9665C23.7074 22.3717 23.5868 22.7668 23.3818 23.1194C23.1768 23.472 22.8934 23.772 22.5549 23.9947L14.299 29.3985C14.2224 29.0585 14.0536 28.749 13.8113 28.5047C13.569 28.2605 13.263 28.0911 12.9275 28.0158L18.2492 19.6331C18.4685 19.289 18.7641 19.0009 19.1117 18.7928C19.4593 18.5846 19.8489 18.4623 20.2482 18.4359L22.47 18.2935L22.4948 18.317L20.7896 18.9038C20.7187 18.9281 20.6582 18.9772 20.6188 19.0421C20.5795 19.107 20.564 19.1836 20.575 19.2579C20.586 19.3323 20.623 19.3997 20.6791 19.4479C20.7352 19.4961 20.8069 19.522 20.8813 19.521C20.9155 19.5226 20.9498 19.5184 20.9829 19.5087L22.8291 18.8696L21.9166 19.7931C21.8873 19.8228 21.8639 19.8581 21.8477 19.8967C21.8316 19.9354 21.8231 19.9768 21.8226 20.0184C21.8222 20.0601 21.8298 20.1013 21.8451 20.1396C21.8604 20.1779 21.883 20.2126 21.9118 20.2417C21.9404 20.2709 21.9746 20.2939 22.0124 20.3094C22.0501 20.3249 22.0907 20.3327 22.1317 20.3322C22.1728 20.3318 22.2135 20.3231 22.2516 20.3067C22.2897 20.2903 22.3244 20.2666 22.3537 20.2367L23.3373 19.2364L22.6817 21.2333C22.6549 21.3135 22.6604 21.4005 22.6969 21.4752C22.7335 21.5498 22.798 21.606 22.8764 21.6314C22.9548 21.6568 23.0406 21.6493 23.115 21.6106C23.1894 21.5718 23.2462 21.505 23.2729 21.4248L23.8492 19.6872L23.8739 19.7123L23.7339 21.9665ZM24.6748 19.15L24.61 19.2157C24.592 19.2341 24.5707 19.2487 24.5472 19.2587C24.5238 19.2688 24.4988 19.2741 24.4736 19.2744C24.4483 19.2747 24.4234 19.2699 24.4002 19.2604C24.377 19.2509 24.356 19.2367 24.3383 19.2188L22.9932 17.8516C22.9579 17.8153 22.9385 17.7659 22.9391 17.7143C22.9396 17.6627 22.9601 17.613 22.9962 17.5758L23.0609 17.51C23.0976 17.4729 23.147 17.4518 23.1982 17.4512C23.2494 17.4506 23.2983 17.4707 23.3342 17.507L24.3118 18.501L24.6793 18.8741C24.6969 18.8921 24.7107 18.9136 24.7199 18.9372C24.7292 18.9608 24.7338 18.9861 24.7333 19.0118C24.7329 19.0374 24.7275 19.0628 24.7175 19.0865C24.7074 19.1102 24.6929 19.1318 24.6748 19.15ZM25.0968 18.3922L25.0257 18.3217L26.3054 17.5146C26.3424 17.4933 26.375 17.4647 26.4011 17.4306C26.4272 17.3964 26.4464 17.3574 26.4574 17.3158C26.4684 17.2743 26.4711 17.2311 26.4653 17.1888C26.4595 17.1466 26.4452 17.1061 26.4235 17.07C26.4017 17.0338 26.3729 17.0027 26.3387 16.9784C26.3045 16.9541 26.2657 16.9373 26.2246 16.9288C26.1835 16.9203 26.1409 16.9204 26.0994 16.9291C26.058 16.9378 26.0185 16.9548 25.9833 16.9793L24.5778 17.8718L24.2829 17.5692L25.1618 16.142C25.1859 16.1064 25.2027 16.0663 25.2112 16.0242C25.2198 15.9821 25.2199 15.9389 25.2115 15.8971C25.2032 15.8554 25.1865 15.8159 25.1626 15.7812C25.1387 15.7465 25.108 15.7172 25.0724 15.6952C25.0368 15.6731 24.997 15.6586 24.9554 15.6527C24.9138 15.6468 24.8712 15.6495 24.8303 15.6607C24.7894 15.6719 24.7509 15.6914 24.7173 15.7179C24.6836 15.7444 24.6555 15.7775 24.6345 15.8151L23.8397 17.1145L23.7794 17.0533L23.7702 17.0439L25.0816 12.7489L25.5922 13.8924C25.6086 13.9311 25.6326 13.9658 25.6627 13.9946C25.6927 14.0233 25.7283 14.0456 25.7674 14.0599C25.8064 14.0742 25.848 14.0804 25.8898 14.0781C25.9315 14.0757 25.9726 14.0649 26.0105 14.0463L26.9714 13.5598L26.6663 15.055C26.6654 15.0629 26.6653 15.0709 26.666 15.0788C26.6651 15.0899 26.665 15.101 26.6657 15.1121C26.6647 15.1248 26.6646 15.1375 26.6652 15.1501C26.6644 15.1565 26.6643 15.1628 26.665 15.1692C26.6678 15.182 26.6713 15.1947 26.6756 15.2071L26.6753 15.2309C26.6786 15.2404 26.6833 15.2494 26.6891 15.2577C26.6927 15.2671 26.6973 15.2761 26.7028 15.2844L26.7167 15.3033C26.7166 15.3128 26.7321 15.3238 26.7398 15.3316C26.7447 15.3371 26.7504 15.3419 26.7568 15.3457L26.7862 15.3707L26.8033 15.38C26.8146 15.3877 26.8265 15.3944 26.839 15.4002L26.8561 15.4L26.8982 15.4122L26.92 15.412C26.933 15.4135 26.9461 15.4134 26.9591 15.4115L26.9919 15.4112L27.0153 15.4109L28.5376 15.1242L28.0584 16.1141C28.0397 16.1522 28.0285 16.1936 28.0256 16.2359C28.0228 16.2781 28.0282 16.3203 28.0417 16.36C28.0675 16.4384 28.1229 16.5027 28.1959 16.539L29.3238 17.0573L25.0968 18.3922Z" fill="#357895"/>
</svg>
